# https://github.com/mikedh/trimesh
mtllib material.mtl
usemtl material_0
v -0.21337903 -0.19072562 0.14678622
v -0.06325279 -0.19072562 0.14678622
v -0.06325279 -0.19072562 0.20468880
v -0.21337903 -0.19072562 0.20468880
v -0.06334086 -0.19072562 0.20542479
v -0.06336249 -0.19072562 0.20560557
v -0.21326932 -0.19072562 0.20560557
v -0.06367409 -0.19072562 0.20638327
v -0.21295773 -0.19072562 0.20638327
v -0.06414072 -0.19072562 0.20690243
v -0.21249110 -0.19072562 0.20690243
v -0.21194104 -0.19072562 0.20708475
v -0.06469078 -0.19072562 0.20708475
vn 0.00000000 -1.00000000 0.00000000
vn 0.00000000 -1.00000000 0.00000000
vn 0.00000000 -1.00000000 0.00000000
vn 0.00000000 -1.00000000 0.00000000
vn 0.00000000 -1.00000000 0.00000000
vn 0.00000000 -1.00000000 0.00000000
vn 0.00000000 -1.00000000 0.00000000
vn 0.00000000 -1.00000000 0.00000000
vn 0.00000000 -1.00000000 0.00000000
vn 0.00000000 -1.00000000 0.00000000
vn 0.00000000 -1.00000000 0.00000000
vn 0.00000000 -1.00000000 0.00000000
vn 0.00000000 -1.00000000 0.00000000
vt 0.00368900 0.99999900
vt 0.99999900 0.99178000
vt 0.99631000 0.52299100
vt 0.00000100 0.53120800
vt 0.99568000 0.51704100
vt 0.99552500 0.51557800
vt 0.00066900 0.52378300
vt 0.99340800 0.50930200
vt 0.00268800 0.51747300
vt 0.99027900 0.50512700
vt 0.00575000 0.51324600
vt 0.00939200 0.51172900
vt 0.98661400 0.50366800
f 4/4/4 1/1/1 2/2/2
f 2/2/2 3/3/3 4/4/4
f 4/4/4 3/3/3 5/5/5
f 4/4/4 5/5/5 6/6/6
f 6/6/6 7/7/7 4/4/4
f 7/7/7 6/6/6 8/8/8
f 8/8/8 9/9/9 7/7/7
f 9/9/9 8/8/8 10/10/10
f 10/10/10 11/11/11 9/9/9
f 13/13/13 12/12/12 11/11/11
f 11/11/11 10/10/10 13/13/13