# https://github.com/mikedh/trimesh
mtllib material.mtl
usemtl material_0
v 0.25857189 -0.32867957 0.24544341
v 0.25282252 -0.33285726 0.24605643
v 0.25992967 -0.33285726 0.24544341
v 0.25501896 -0.32609705 0.24544341
v 0.25062607 -0.32609705 0.24544341
v 0.24707314 -0.32867957 0.24544341
v 0.24571536 -0.33285726 0.24544341
v 0.24707314 -0.33703365 0.24544341
v 0.25062607 -0.33961617 0.24544341
v 0.25501896 -0.33961617 0.24544341
v 0.25857189 -0.33703365 0.24544341
v 0.26432127 -0.32450189 0.24376086
v 0.26703683 -0.33285726 0.24376086
v 0.25721541 -0.31933814 0.24376086
v 0.24842962 -0.31933814 0.24376086
v 0.24132246 -0.32450189 0.24376086
v 0.23860820 -0.33285726 0.24376086
v 0.24132246 -0.34121133 0.24376086
v 0.24842962 -0.34637508 0.24376086
v 0.25721541 -0.34637508 0.24376086
v 0.26432127 -0.34121133 0.24376086
v 0.25857189 -0.32867957 -0.19952145
v 0.26432127 -0.32450189 -0.19783759
v 0.25721541 -0.31933814 -0.19783759
v 0.25992967 -0.33285726 -0.19952145
v 0.25282252 -0.33285726 -0.20013447
v 0.25501896 -0.32609705 -0.19952145
v 0.24842962 -0.31933814 -0.19783759
v 0.25062607 -0.32609705 -0.19952145
v 0.24132246 -0.32450189 -0.19783759
v 0.24707314 -0.32867957 -0.19952145
v 0.24571536 -0.33285726 -0.19952145
v 0.23860820 -0.33285726 -0.19783759
v 0.24132246 -0.34121133 -0.19783759
v 0.24842962 -0.34637508 -0.19783759
v 0.24707314 -0.33703365 -0.19952145
v 0.25062607 -0.33961617 -0.19952145
v 0.25721541 -0.34637508 -0.19783759
v 0.25501896 -0.33961617 -0.19952145
v 0.26432127 -0.34121133 -0.19783759
v 0.25857189 -0.33703365 -0.19952145
v 0.26703683 -0.33285726 -0.19783759
v 0.29059779 -0.28689878 -0.22602623
v 0.29059779 -0.28689878 0.26822701
v -0.50000000 -0.28689878 0.26822701
v -0.50000000 -0.28689878 -0.22602623
v -0.50000000 -0.22136008 -0.22602623
v 0.29059779 -0.22136008 -0.22602623
v 0.29059779 -0.28689878 -0.22602623
v -0.50000000 -0.28689878 -0.22602623
v -0.50000000 -0.22136008 0.26822701
v -0.50000000 -0.22136008 -0.22602623
v -0.50000000 -0.28689878 -0.22602623
v -0.50000000 -0.28689878 0.26822701
v -0.50000000 -0.22136008 0.26822701
v -0.50000000 -0.28689878 0.26822701
v 0.29059779 -0.28689878 0.26822701
v 0.29059779 -0.22136008 0.26822701
v 0.29059779 -0.28689878 -0.22602623
v 0.29595718 -0.27805690 -0.21352186
v 0.29595718 -0.27805690 0.25572264
v 0.29059779 -0.28689878 0.26822701
v 0.29059779 -0.22136008 -0.22602623
v 0.29595718 -0.21600069 -0.21352186
v 0.29595718 -0.27805690 -0.21352186
v 0.29059779 -0.28689878 -0.22602623
v -0.50000000 -0.22136008 0.26822701
v -0.49115812 -0.21600069 0.25938512
v -0.49115812 -0.21600069 -0.21718435
v -0.50000000 -0.22136008 -0.22602623
v 0.29595718 -0.21064260 -0.22602623
v 0.29595718 -0.21600069 -0.21352186
v -0.49115812 -0.21600069 -0.21718435
v -0.50000000 -0.21064260 -0.22602623
v -0.50000000 -0.21064260 -0.22602623
v -0.49115812 -0.21600069 -0.21718435
v -0.49115812 -0.21600069 0.25938512
v -0.50000000 -0.21064260 0.26822701
v 0.29059779 -0.22136008 0.26822701
v 0.29595718 -0.21600069 0.25572264
v -0.49115812 -0.21600069 0.25938512
v -0.50000000 -0.22136008 0.26822701
v 0.29059779 -0.28689878 0.26822701
v 0.29595718 -0.27805690 0.25572264
v 0.29595718 -0.21600069 0.25572264
v 0.29059779 -0.22136008 0.26822701
v -0.50000000 -0.21064260 0.26822701
v -0.49115812 -0.21600069 0.25938512
v 0.29595718 -0.21600069 0.25572264
v 0.29595718 -0.21064260 0.26822701
v 0.26432127 -0.32450189 -0.19783759
v 0.26432127 -0.32450189 0.24376086
v 0.26703683 -0.33285726 0.24376086
v 0.26703683 -0.33285726 -0.19783759
v 0.25721541 -0.31933814 -0.19783759
v 0.25721541 -0.31933814 0.24376086
v 0.26432127 -0.34121133 -0.19783759
v 0.26432127 -0.34121133 0.24376086
v 0.25721541 -0.34637508 0.24376086
v 0.25721541 -0.34637508 -0.19783759
v 0.24842962 -0.34637508 0.24376086
v 0.24132246 -0.34121133 0.24376086
v 0.24842962 -0.34637508 -0.19783759
v 0.24132246 -0.34121133 -0.19783759
v 0.23860820 -0.33285726 -0.19783759
v 0.23860820 -0.33285726 0.24376086
v 0.24132246 -0.32450189 0.24376086
v 0.24132246 -0.32450189 -0.19783759
v 0.24842962 -0.31933814 0.24376086
v 0.24842962 -0.31933814 -0.19783759
v 0.25721541 -0.31933814 0.24376086
v 0.25721541 -0.31933814 -0.19783759
v 0.26288001 -0.28498797 0.18456629
v 0.26102920 -0.28498797 0.19025958
v 0.26102920 -0.32482535 0.19025958
v 0.26288001 -0.32482535 0.18456629
v 0.26102920 -0.28498797 0.17887300
v 0.25618762 -0.28498797 0.17535529
v 0.26102920 -0.32482535 0.17887300
v 0.25618762 -0.32482535 0.17535529
v 0.25618762 -0.32482535 0.19377729
v 0.25618762 -0.28498797 0.19377729
v 0.25020086 -0.32482535 0.19377729
v 0.24535798 -0.32482535 0.19025958
v 0.25020086 -0.28498797 0.19377729
v 0.24535798 -0.28498797 0.19025958
v 0.24350848 -0.28498797 0.18456629
v 0.24350848 -0.32482535 0.18456629
v 0.24535798 -0.32482535 0.17887300
v 0.24535798 -0.28498797 0.17887300
v 0.25020086 -0.32482535 0.17535529
v 0.25618762 -0.32482535 0.17535529
v 0.25020086 -0.28498797 0.17535529
v 0.25618762 -0.28498797 0.17535529
v 0.26288001 -0.28498797 -0.13834695
v 0.26102920 -0.28498797 -0.13265366
v 0.26102920 -0.32482535 -0.13265366
v 0.26288001 -0.32482535 -0.13834695
v 0.26102920 -0.28498797 -0.14404024
v 0.26102920 -0.32482535 -0.14404024
v 0.25618762 -0.28498797 -0.14755795
v 0.25020086 -0.28498797 -0.14755795
v 0.25618762 -0.32482535 -0.14755795
v 0.25020086 -0.32482535 -0.14755795
v 0.25618762 -0.32482535 -0.12913595
v 0.25618762 -0.28498797 -0.12913595
v 0.25020086 -0.32482535 -0.12913595
v 0.24535798 -0.32482535 -0.13265366
v 0.25020086 -0.28498797 -0.12913595
v 0.24535798 -0.28498797 -0.13265366
v 0.24350848 -0.28498797 -0.13834695
v 0.24350848 -0.32482535 -0.13834695
v 0.24535798 -0.32482535 -0.14404024
v 0.24535798 -0.28498797 -0.14404024
v 0.25020086 -0.32482535 -0.14755795
v 0.25020086 -0.28498797 -0.14755795
vn 0.13979360 0.10159535 0.98495489
vn 0.00000000 0.00000000 1.00000000
vn 0.17279267 0.00000000 0.98495822
vn 0.05339810 0.16429416 0.98496501
vn -0.05339810 0.16429416 0.98496501
vn -0.13979360 0.10159535 0.98495489
vn -0.17279267 0.00000000 0.98495822
vn -0.13979360 -0.10159535 0.98495489
vn -0.05339723 -0.16439146 0.98494882
vn 0.05339723 -0.16439146 0.98494882
vn 0.13979360 -0.10159535 0.98495489
vn 0.18649384 0.13549552 0.97306784
vn 0.23049379 0.00000000 0.97307380
vn 0.07119852 0.21919543 0.97307972
vn -0.07119852 0.21919543 0.97307972
vn -0.18649384 0.13549552 0.97306784
vn -0.23049379 0.00000000 0.97307380
vn -0.18649384 -0.13549552 0.97306784
vn -0.07119852 -0.21919543 0.97307972
vn 0.07119852 -0.21919543 0.97307972
vn 0.18649384 -0.13549552 0.97306784
vn 0.13979360 0.10159535 -0.98495489
vn 0.18649384 0.13549552 -0.97306784
vn 0.07119852 0.21919543 -0.97307972
vn 0.17279267 0.00000000 -0.98495822
vn 0.00000000 0.00000000 -1.00000000
vn 0.05339723 0.16439146 -0.98494882
vn -0.07119852 0.21919543 -0.97307972
vn -0.05339810 0.16429416 -0.98496501
vn -0.18649384 0.13549552 -0.97306784
vn -0.13979360 0.10159535 -0.98495489
vn -0.17279267 0.00000000 -0.98495822
vn -0.23049379 0.00000000 -0.97307380
vn -0.18649384 -0.13549552 -0.97306784
vn -0.07119852 -0.21919543 -0.97307972
vn -0.13979360 -0.10159535 -0.98495489
vn -0.05339810 -0.16429416 -0.98496501
vn 0.07119852 -0.21919543 -0.97307972
vn 0.05339810 -0.16429416 -0.98496501
vn 0.18649384 -0.13549552 -0.97306784
vn 0.13979360 -0.10159535 -0.98495489
vn 0.23049379 0.00000000 -0.97307380
vn 0.00000000 -1.00000000 0.00000000
vn 0.00000000 -1.00000000 0.00000000
vn 0.00000000 -1.00000000 0.00000000
vn 0.00000000 -1.00000000 0.00000000
vn 0.00000000 0.00000000 -1.00000000
vn 0.00000000 0.00000000 -1.00000000
vn 0.00000000 0.00000000 -1.00000000
vn 0.00000000 0.00000000 -1.00000000
vn -1.00000000 0.00000000 0.00000000
vn -1.00000000 0.00000000 0.00000000
vn -1.00000000 0.00000000 0.00000000
vn -1.00000000 0.00000000 0.00000000
vn 0.00000000 0.00000000 1.00000000
vn 0.00000000 0.00000000 1.00000000
vn 0.00000000 0.00000000 1.00000000
vn 0.00000000 0.00000000 1.00000000
vn 0.85519917 -0.51829950 0.00000000
vn 0.85519917 -0.51829950 0.00000000
vn 0.85519917 -0.51829950 0.00000000
vn 0.85519917 -0.51829950 0.00000000
vn 0.91914503 0.00000000 -0.39391930
vn 0.91914503 0.00000000 -0.39391930
vn 0.91914503 0.00000000 -0.39391930
vn 0.91914503 0.00000000 -0.39391930
vn -0.51829950 0.85519917 0.00000000
vn -0.51829950 0.85519917 0.00000000
vn -0.51829950 0.85519917 0.00000000
vn -0.51829950 0.85519917 0.00000000
vn 0.00099998 -0.89348478 -0.44909235
vn 0.00099998 -0.89348478 -0.44909235
vn 0.00100003 -0.89352491 -0.44901252
vn 0.00100003 -0.89352491 -0.44901252
vn -0.51829950 -0.85519917 0.00000000
vn -0.51829950 -0.85519917 0.00000000
vn -0.51829950 -0.85519917 0.00000000
vn -0.51829950 -0.85519917 0.00000000
vn 0.00099998 0.89338434 0.44929213
vn 0.00099998 0.89338434 0.44929213
vn 0.00099998 0.89338434 0.44929213
vn 0.00099998 0.89338434 0.44929213
vn 0.91914503 0.00000000 0.39391930
vn 0.91914503 0.00000000 0.39391930
vn 0.91914503 0.00000000 0.39391930
vn 0.91914503 0.00000000 0.39391930
vn 0.00099998 -0.89348478 0.44909235
vn 0.00099998 -0.89348478 0.44909235
vn 0.00100003 -0.89352491 0.44901252
vn 0.00099998 -0.89348478 0.44909235
vn 0.80900411 0.58780299 0.00000000
vn 0.80900411 0.58780299 0.00000000
vn 1.00000000 0.00000000 0.00000000
vn 1.00000000 0.00000000 0.00000000
vn 0.30898884 0.95106566 0.00000000
vn 0.30898884 0.95106566 0.00000000
vn 0.80900411 -0.58780299 0.00000000
vn 0.80900411 -0.58780299 0.00000000
vn 0.30898884 -0.95106566 0.00000000
vn 0.30898884 -0.95106566 0.00000000
vn -0.30898884 -0.95106566 0.00000000
vn -0.80900411 -0.58780299 0.00000000
vn -0.30898884 -0.95106566 0.00000000
vn -0.80900411 -0.58780299 0.00000000
vn -1.00000000 0.00000000 0.00000000
vn -1.00000000 0.00000000 0.00000000
vn -0.80900411 0.58780299 0.00000000
vn -0.80900411 0.58780299 0.00000000
vn -0.30898884 0.95106566 0.00000000
vn -0.30898884 0.95106566 0.00000000
vn 0.30898884 0.95106566 0.00000000
vn 0.30898884 0.95106566 0.00000000
vn 1.00000000 0.00000000 0.00000000
vn 0.80900411 0.00000000 0.58780299
vn 0.80900411 0.00000000 0.58780299
vn 1.00000000 0.00000000 0.00000000
vn 0.80900411 0.00000000 -0.58780299
vn 0.30898884 0.00000000 -0.95106566
vn 0.80900411 0.00000000 -0.58780299
vn 0.30898884 0.00000000 -0.95106566
vn 0.30898884 0.00000000 0.95106566
vn 0.30898884 0.00000000 0.95106566
vn -0.30898884 0.00000000 0.95106566
vn -0.80900411 0.00000000 0.58780299
vn -0.30898884 0.00000000 0.95106566
vn -0.80900411 0.00000000 0.58780299
vn -1.00000000 0.00000000 0.00000000
vn -1.00000000 0.00000000 0.00000000
vn -0.80900411 0.00000000 -0.58780299
vn -0.80900411 0.00000000 -0.58780299
vn -0.30898884 0.00000000 -0.95106566
vn 0.30898884 0.00000000 -0.95106566
vn -0.30898884 0.00000000 -0.95106566
vn 0.30898884 0.00000000 -0.95106566
vn 1.00000000 0.00000000 0.00000000
vn 0.80900411 0.00000000 0.58780299
vn 0.80900411 0.00000000 0.58780299
vn 1.00000000 0.00000000 0.00000000
vn 0.80900411 0.00000000 -0.58780299
vn 0.80900411 0.00000000 -0.58780299
vn 0.30898884 0.00000000 -0.95106566
vn -0.30898884 0.00000000 -0.95106566
vn 0.30898884 0.00000000 -0.95106566
vn -0.30898884 0.00000000 -0.95106566
vn 0.30898884 0.00000000 0.95106566
vn 0.30898884 0.00000000 0.95106566
vn -0.30898884 0.00000000 0.95106566
vn -0.80900411 0.00000000 0.58780299
vn -0.30898884 0.00000000 0.95106566
vn -0.80900411 0.00000000 0.58780299
vn -1.00000000 0.00000000 0.00000000
vn -1.00000000 0.00000000 0.00000000
vn -0.80900411 0.00000000 -0.58780299
vn -0.80900411 0.00000000 -0.58780299
vn -0.30901823 0.00000000 -0.95105611
vn -0.30898884 0.00000000 -0.95106566
vt 0.71416000 0.80851100
vt 0.71206600 0.80562900
vt 0.71206600 0.80919100
vt 0.71545400 0.80673000
vt 0.71545400 0.80452800
vt 0.71416000 0.80274700
vt 0.71206600 0.80206700
vt 0.70997300 0.80274700
vt 0.70867900 0.80452800
vt 0.70867900 0.80673000
vt 0.70997300 0.80851100
vt 0.71631200 0.81147200
vt 0.71206600 0.81285100
vt 0.71893600 0.80786100
vt 0.71893600 0.80339800
vt 0.71631200 0.79978700
vt 0.71206600 0.79840700
vt 0.70782100 0.79978700
vt 0.70519700 0.80339700
vt 0.70519700 0.80786100
vt 0.70782100 0.81147200
vt 0.71442600 0.82732300
vt 0.71740800 0.82944300
vt 0.71380900 0.83210600
vt 0.71510000 0.82522400
vt 0.71155500 0.82522400
vt 0.71265400 0.82862700
vt 0.70930100 0.83210600
vt 0.71045600 0.82862700
vt 0.70570200 0.82944300
vt 0.70868400 0.82732300
vt 0.70801000 0.82522400
vt 0.70435600 0.82522400
vt 0.70570200 0.82100600
vt 0.70930100 0.81834200
vt 0.70868400 0.82312600
vt 0.71045600 0.82182200
vt 0.71380900 0.81834200
vt 0.71265400 0.82182200
vt 0.71740800 0.82100600
vt 0.71442600 0.82312600
vt 0.71875300 0.82522400
vt 0.94474800 0.55184200
vt 0.94474800 0.30358200
vt 0.54763000 0.30358200
vt 0.54763000 0.55184300
vt 0.54763000 0.58476100
vt 0.94474800 0.58476100
vt 0.94474800 0.55184200
vt 0.54763000 0.55184300
vt 0.51470900 0.30358200
vt 0.51470900 0.55184400
vt 0.54763000 0.55184300
vt 0.54763000 0.30358200
vt 0.54763000 0.27066400
vt 0.54763000 0.30358200
vt 0.94474800 0.30358200
vt 0.94474800 0.27066400
vt 0.70077300 0.99277900
vt 0.69449200 0.98758600
vt 0.45879100 0.98758600
vt 0.45251100 0.99277900
vt 0.81622300 0.94703200
vt 0.81354300 0.95387000
vt 0.84471300 0.95381600
vt 0.84914200 0.94697500
vt 0.45202300 0.94878000
vt 0.45646200 0.95397400
vt 0.69584200 0.95405100
vt 0.70028500 0.94885900
vt 0.85291300 0.94241900
vt 0.85291300 0.93642000
vt 0.45754500 0.93642000
vt 0.45310500 0.94241900
vt 0.70028200 0.95924500
vt 0.69584200 0.95405100
vt 0.45646200 0.95397400
vt 0.45201900 0.95916600
vt 0.45503200 0.91197300
vt 0.45234000 0.91797100
vt 0.84770800 0.91797100
vt 0.85214900 0.91197300
vt 0.84819100 0.98100200
vt 0.84368500 0.97421100
vt 0.81251700 0.97450800
vt 0.81527400 0.98131500
vt 0.85214900 0.92397000
vt 0.84770800 0.91797100
vt 0.45234000 0.91797100
vt 0.45234000 0.92397000
vt 0.87962400 0.59524000
vt 0.65780900 0.59524000
vt 0.65780900 0.59965200
vt 0.87962400 0.59965200
vt 0.87962400 0.59082800
vt 0.65780900 0.59082800
vt 0.87962400 0.60406400
vt 0.65780900 0.60406400
vt 0.65780900 0.60847600
vt 0.87962400 0.60847600
vt 0.65780900 0.61288800
vt 0.65780900 0.61730000
vt 0.87962400 0.61288800
vt 0.87962400 0.61730000
vt 0.87962400 0.62171200
vt 0.65780900 0.62171200
vt 0.65780900 0.62612400
vt 0.87962400 0.62612400
vt 0.65780900 0.63053600
vt 0.87962400 0.63053600
vt 0.65780900 0.63494900
vt 0.87962400 0.63494900
vt 0.81523000 0.77621100
vt 0.81523000 0.77921700
vt 0.83523900 0.77921700
vt 0.83523900 0.77621100
vt 0.81523000 0.77320400
vt 0.81523000 0.77019800
vt 0.83523900 0.77320400
vt 0.83523900 0.77019800
vt 0.83523900 0.78222300
vt 0.81523000 0.78222300
vt 0.83523900 0.78522900
vt 0.83523900 0.78823500
vt 0.81523000 0.78522900
vt 0.81523000 0.78823500
vt 0.81523000 0.79124200
vt 0.83523900 0.79124200
vt 0.83523900 0.79424800
vt 0.81523000 0.79424800
vt 0.83523900 0.79725500
vt 0.83523900 0.80026100
vt 0.81523000 0.79725500
vt 0.81523000 0.80026100
vt 0.78820200 0.77961500
vt 0.78820200 0.78262100
vt 0.80821200 0.78262100
vt 0.80821200 0.77961500
vt 0.78820200 0.77660900
vt 0.80821200 0.77660900
vt 0.78820200 0.77360200
vt 0.78820200 0.77059600
vt 0.80821200 0.77360200
vt 0.80821200 0.77059600
vt 0.80821200 0.78562700
vt 0.78820200 0.78562700
vt 0.80821200 0.78863400
vt 0.80821200 0.79164000
vt 0.78820200 0.78863400
vt 0.78820200 0.79164000
vt 0.78820200 0.79464600
vt 0.80821200 0.79464600
vt 0.80821200 0.79765300
vt 0.78820200 0.79765300
vt 0.80821200 0.80066000
vt 0.78820200 0.80066000
f 1/1/1 2/2/2 3/3/3
f 4/4/4 2/2/2 1/1/1
f 5/5/5 2/2/2 4/4/4
f 6/6/6 2/2/2 5/5/5
f 7/7/7 2/2/2 6/6/6
f 8/8/8 2/2/2 7/7/7
f 9/9/9 2/2/2 8/8/8
f 10/10/10 2/2/2 9/9/9
f 11/11/11 2/2/2 10/10/10
f 3/3/3 2/2/2 11/11/11
f 12/12/12 1/1/1 3/3/3
f 12/12/12 3/3/3 13/13/13
f 14/14/14 4/4/4 1/1/1
f 14/14/14 1/1/1 12/12/12
f 15/15/15 5/5/5 4/4/4
f 15/15/15 4/4/4 14/14/14
f 16/16/16 6/6/6 5/5/5
f 16/16/16 5/5/5 15/15/15
f 17/17/17 7/7/7 6/6/6
f 17/17/17 6/6/6 16/16/16
f 18/18/18 8/8/8 7/7/7
f 18/18/18 7/7/7 17/17/17
f 19/19/19 9/9/9 8/8/8
f 19/19/19 8/8/8 18/18/18
f 20/20/20 10/10/10 9/9/9
f 20/20/20 9/9/9 19/19/19
f 21/21/21 11/11/11 10/10/10
f 21/21/21 10/10/10 20/20/20
f 21/21/21 13/13/13 3/3/3
f 21/21/21 3/3/3 11/11/11
f 22/22/22 24/24/24 23/23/23
f 25/25/25 22/22/22 23/23/23
f 22/22/22 27/27/27 24/24/24
f 22/22/22 25/25/25 26/26/26
f 27/27/27 22/22/22 26/26/26
f 27/27/27 28/28/28 24/24/24
f 27/27/27 29/29/29 28/28/28
f 29/29/29 27/27/27 26/26/26
f 31/31/31 29/29/29 26/26/26
f 29/29/29 30/30/30 28/28/28
f 29/29/29 31/31/31 30/30/30
f 31/31/31 32/32/32 33/33/33
f 32/32/32 31/31/31 26/26/26
f 31/31/31 33/33/33 30/30/30
f 32/32/32 34/34/34 33/33/33
f 32/32/32 36/36/36 34/34/34
f 36/36/36 35/35/35 34/34/34
f 36/36/36 32/32/32 26/26/26
f 36/36/36 37/37/37 35/35/35
f 37/37/37 36/36/36 26/26/26
f 37/37/37 38/38/38 35/35/35
f 37/37/37 39/39/39 38/38/38
f 39/39/39 37/37/37 26/26/26
f 39/39/39 40/40/40 38/38/38
f 39/39/39 41/41/41 40/40/40
f 41/41/41 39/39/39 26/26/26
f 40/40/40 41/41/41 25/25/25
f 25/25/25 41/41/41 26/26/26
f 40/40/40 25/25/25 42/42/42
f 25/25/25 23/23/23 42/42/42
f 43/43/43 44/44/44 45/45/45
f 43/43/43 45/45/45 46/46/46
f 47/47/47 48/48/48 49/49/49
f 47/47/47 49/49/49 50/50/50
f 51/51/51 52/52/52 53/53/53
f 51/51/51 53/53/53 54/54/54
f 55/55/55 56/56/56 57/57/57
f 55/55/55 57/57/57 58/58/58
f 59/59/59 60/60/60 61/61/61
f 59/59/59 61/61/61 62/62/62
f 63/63/63 64/64/64 65/65/65
f 63/63/63 65/65/65 66/66/66
f 67/67/67 68/68/68 69/69/69
f 67/67/67 69/69/69 70/70/70
f 71/71/71 72/72/72 73/73/73
f 71/71/71 73/73/73 74/74/74
f 75/75/75 76/76/76 77/77/77
f 75/75/75 77/77/77 78/78/78
f 79/79/79 80/80/80 81/81/81
f 79/79/79 81/81/81 82/82/82
f 83/83/83 84/84/84 85/85/85
f 83/83/83 85/85/85 86/86/86
f 87/87/87 88/88/88 89/89/89
f 87/87/87 89/89/89 90/90/90
f 95/95/95 92/92/92 91/91/91
f 91/91/91 92/92/92 93/93/93
f 91/91/91 93/93/93 94/94/94
f 95/95/95 96/96/96 92/92/92
f 94/94/94 93/93/93 98/98/98
f 94/94/94 98/98/98 97/97/97
f 97/97/97 98/98/98 99/99/99
f 97/97/97 99/99/99 100/100/100
f 100/100/100 99/99/99 101/101/101
f 100/100/100 101/101/101 103/103/103
f 103/103/103 101/101/101 102/102/102
f 103/103/103 102/102/102 104/104/104
f 104/104/104 106/106/106 105/105/105
f 104/104/104 102/102/102 106/106/106
f 105/105/105 106/106/106 107/107/107
f 105/105/105 107/107/107 108/108/108
f 108/108/108 107/107/107 109/109/109
f 108/108/108 109/109/109 110/110/110
f 110/110/110 109/109/109 111/111/111
f 110/110/110 111/111/111 112/112/112
f 113/113/113 114/114/114 115/115/115
f 113/113/113 115/115/115 116/116/116
f 117/117/117 113/113/113 116/116/116
f 118/118/118 117/117/117 119/119/119
f 117/117/117 116/116/116 119/119/119
f 118/118/118 119/119/119 120/120/120
f 114/114/114 121/121/121 115/115/115
f 122/122/122 123/123/123 121/121/121
f 114/114/114 122/122/122 121/121/121
f 125/125/125 124/124/124 123/123/123
f 122/122/122 125/125/125 123/123/123
f 125/125/125 126/126/126 124/124/124
f 126/126/126 128/128/128 124/124/124
f 126/126/126 127/127/127 128/128/128
f 127/127/127 129/129/129 128/128/128
f 127/127/127 130/130/130 129/129/129
f 130/130/130 131/131/131 129/129/129
f 133/133/133 132/132/132 131/131/131
f 130/130/130 133/133/133 131/131/131
f 133/133/133 134/134/134 132/132/132
f 135/135/135 136/136/136 137/137/137
f 135/135/135 137/137/137 138/138/138
f 139/139/139 135/135/135 138/138/138
f 139/139/139 138/138/138 140/140/140
f 141/141/141 139/139/139 140/140/140
f 142/142/142 141/141/141 143/143/143
f 141/141/141 140/140/140 143/143/143
f 142/142/142 143/143/143 144/144/144
f 136/136/136 145/145/145 137/137/137
f 146/146/146 147/147/147 145/145/145
f 136/136/136 146/146/146 145/145/145
f 149/149/149 148/148/148 147/147/147
f 146/146/146 149/149/149 147/147/147
f 149/149/149 150/150/150 148/148/148
f 150/150/150 152/152/152 148/148/148
f 150/150/150 151/151/151 152/152/152
f 151/151/151 153/153/153 152/152/152
f 154/154/154 155/155/155 153/153/153
f 151/151/151 154/154/154 153/153/153
f 154/154/154 156/156/156 155/155/155