# https://github.com/mikedh/trimesh
mtllib material.mtl
usemtl material_0
v -0.39197960 -0.39810617 0.19979563
v -0.12152700 -0.39810617 0.04038455
v -0.39197960 -0.39810617 -0.11902838
v 0.14297414 -0.40654235 0.21010137
v -0.12152700 -0.40654235 0.04038455
v 0.14733027 -0.40654235 0.20574524
v 0.14892375 -0.39810617 0.19979563
v 0.14892375 -0.39810617 -0.11902838
v 0.14733027 -0.39810617 -0.12497800
v 0.14297414 -0.39810617 -0.12933413
v 0.13702453 -0.39810617 -0.13092761
v -0.38008038 -0.39810617 -0.13092761
v -0.38602999 -0.39810617 -0.12933413
v -0.39038612 -0.39810617 -0.12497800
v -0.39038612 -0.39810617 0.20574524
v -0.38602999 -0.39810617 0.21010137
v -0.38008038 -0.39810617 0.21169485
v 0.13702453 -0.39810617 0.21169485
v 0.14297414 -0.39810617 0.21010137
v 0.14733027 -0.39810617 0.20574524
v -0.39038612 -0.40654235 -0.12497800
v -0.38602999 -0.40654235 -0.12933413
v -0.38008038 -0.40654235 -0.13092761
v 0.13702453 -0.40654235 -0.13092761
v 0.14297414 -0.40654235 -0.12933413
v 0.14733027 -0.40654235 -0.12497800
v 0.14892375 -0.40654235 -0.11902838
v 0.14892375 -0.40654235 0.19979563
v 0.13702453 -0.40654235 0.21169485
v -0.38008038 -0.40654235 0.21169485
v -0.38602999 -0.40654235 0.21010137
v -0.39038612 -0.40654235 0.20574524
v -0.39197960 -0.40654235 0.19979563
v -0.39197960 -0.40654235 -0.11902838
v -0.10156217 0.00608580 -0.19814285
v -0.10076543 0.00277099 -0.19814285
v -0.10260164 0.00248009 -0.20123532
v -0.10376339 0.00731797 -0.20123532
v -0.10076543 -0.00402539 -0.19814285
v -0.10156217 -0.00734206 -0.19814285
v -0.10376339 -0.00857422 -0.20123532
v -0.10260164 -0.00373634 -0.20123532
v -0.10049861 -0.00062720 -0.19814285
v -0.10235705 -0.00062720 -0.20123532
v -0.38602999 -0.39810617 -0.12933413
v -0.38602999 -0.40654235 -0.12933413
v -0.39038612 -0.40654235 -0.12497800
v -0.39038612 -0.39810617 -0.12497800
v -0.39038612 -0.39810617 -0.12497800
v -0.39038612 -0.40654235 -0.12497800
v -0.39197960 -0.40654235 -0.11902838
v -0.39197960 -0.39810617 -0.11902838
v -0.39197960 -0.40654235 0.19979563
v -0.39197960 -0.39810617 0.19979563
v -0.38008038 -0.39810617 0.21169485
v -0.38008038 -0.40654235 0.21169485
v 0.13702453 -0.40654235 0.21169485
v 0.13702453 -0.39810617 0.21169485
v 0.14892375 -0.39810617 0.19979563
v 0.14892375 -0.40654235 0.19979563
v 0.14892375 -0.40654235 -0.11902838
v 0.14892375 -0.39810617 -0.11902838
v 0.13702453 -0.39810617 -0.13092761
v 0.13702453 -0.40654235 -0.13092761
v -0.38008038 -0.40654235 -0.13092761
v -0.38008038 -0.39810617 -0.13092761
v 0.14297414 -0.39810617 -0.12933413
v 0.14297414 -0.40654235 -0.12933413
v 0.13702453 -0.40654235 -0.13092761
v 0.13702453 -0.39810617 -0.13092761
v 0.14733027 -0.39810617 -0.12497800
v 0.14733027 -0.40654235 -0.12497800
v 0.14297414 -0.40654235 -0.12933413
v 0.14297414 -0.39810617 -0.12933413
v 0.14733027 -0.40654235 -0.12497800
v 0.14733027 -0.39810617 -0.12497800
v 0.14733027 -0.39810617 0.20574524
v 0.14733027 -0.40654235 0.20574524
v 0.14297414 -0.39810617 0.21010137
v 0.14297414 -0.40654235 0.21010137
v 0.14733027 -0.40654235 0.20574524
v 0.14733027 -0.39810617 0.20574524
v 0.13702453 -0.39810617 0.21169485
v 0.13702453 -0.40654235 0.21169485
v 0.14297414 -0.40654235 0.21010137
v 0.14297414 -0.39810617 0.21010137
v -0.38602999 -0.39810617 0.21010137
v -0.38602999 -0.40654235 0.21010137
v -0.38008038 -0.40654235 0.21169485
v -0.38008038 -0.39810617 0.21169485
v -0.39038612 -0.40654235 0.20574524
v -0.39038612 -0.39810617 0.20574524
v -0.39038612 -0.39810617 0.20574524
v -0.39038612 -0.40654235 0.20574524
v -0.38602999 -0.40654235 0.21010137
v -0.38602999 -0.39810617 0.21010137
v -0.38008038 -0.39810617 -0.13092761
v -0.38008038 -0.40654235 -0.13092761
v -0.38602999 -0.40654235 -0.12933413
v -0.38602999 -0.39810617 -0.12933413
vn 0.00000000 1.00000000 0.00000000
vn 0.00000000 1.00000000 0.00000000
vn 0.00000000 1.00000000 0.00000000
vn 0.00000000 -1.00000000 0.00000000
vn 0.00000000 -1.00000000 0.00000000
vn 0.00000000 -1.00000000 0.00000000
vn 0.00000000 1.00000000 0.00000000
vn 0.00000000 1.00000000 0.00000000
vn 0.00000000 1.00000000 0.00000000
vn 0.00000000 1.00000000 0.00000000
vn 0.00000000 1.00000000 0.00000000
vn 0.00000000 1.00000000 0.00000000
vn 0.00000000 1.00000000 0.00000000
vn 0.00000000 1.00000000 0.00000000
vn 0.00000000 1.00000000 0.00000000
vn 0.00000000 1.00000000 0.00000000
vn 0.00000000 1.00000000 0.00000000
vn 0.00000000 1.00000000 0.00000000
vn 0.00000000 1.00000000 0.00000000
vn 0.00000000 1.00000000 0.00000000
vn 0.00000000 -1.00000000 0.00000000
vn 0.00000000 -1.00000000 0.00000000
vn 0.00000000 -1.00000000 0.00000000
vn 0.00000000 -1.00000000 0.00000000
vn 0.00000000 -1.00000000 0.00000000
vn 0.00000000 -1.00000000 0.00000000
vn 0.00000000 -1.00000000 0.00000000
vn 0.00000000 -1.00000000 0.00000000
vn 0.00000000 -1.00000000 0.00000000
vn 0.00000000 -1.00000000 0.00000000
vn 0.00000000 -1.00000000 0.00000000
vn 0.00000000 -1.00000000 0.00000000
vn 0.00000000 -1.00000000 0.00000000
vn 0.00000000 -1.00000000 0.00000000
vn 0.83415707 0.20028969 -0.51387355
vn 0.84528527 0.14239752 -0.51499103
vn 0.84528527 0.14239752 -0.51499103
vn 0.83415707 0.20028969 -0.51387355
vn 0.84528527 -0.14239752 -0.51499103
vn 0.83415707 -0.20028969 -0.51387355
vn 0.83415707 -0.20028969 -0.51387355
vn 0.84528527 -0.14239752 -0.51499103
vn 0.85719278 0.00000000 -0.51499566
vn 0.85719278 0.00000000 -0.51499566
vn -0.70710678 0.00000000 -0.70710678
vn -0.70710678 0.00000000 -0.70710678
vn -0.70710678 0.00000000 -0.70710678
vn -0.70710678 0.00000000 -0.70710678
vn -0.96592886 0.00000000 -0.25880773
vn -0.96592886 0.00000000 -0.25880773
vn -0.99998800 0.00000000 -0.00489994
vn -0.99998800 0.00000000 -0.00489994
vn -0.99998799 -0.00010000 0.00489994
vn -0.99998800 0.00000000 0.00489994
vn -0.00309999 0.00000000 0.99999520
vn -0.00309999 0.00000000 0.99999520
vn 0.00309999 0.00000000 0.99999520
vn 0.00309999 0.00000000 0.99999520
vn 0.99998800 0.00000000 0.00489994
vn 0.99998800 0.00000000 0.00489994
vn 0.99998800 0.00000000 -0.00489994
vn 0.99998800 0.00000000 -0.00489994
vn 0.00309999 0.00000000 -0.99999520
vn 0.00309999 0.00000000 -0.99999520
vn -0.00309999 0.00000000 -0.99999520
vn -0.00309999 0.00000000 -0.99999520
vn 0.25880773 0.00000000 -0.96592886
vn 0.25880773 0.00000000 -0.96592886
vn 0.00299999 0.00000000 -0.99999550
vn 0.00309999 0.00000000 -0.99999520
vn 0.70710678 0.00000000 -0.70710678
vn 0.70710678 0.00000000 -0.70710678
vn 0.70710678 0.00000000 -0.70710678
vn 0.70710678 0.00000000 -0.70710678
vn 0.96592886 0.00000000 -0.25880773
vn 0.96592886 0.00000000 -0.25880773
vn 0.96592886 0.00000000 0.25880773
vn 0.96592886 0.00000000 0.25880773
vn 0.70710678 0.00000000 0.70710678
vn 0.70710678 0.00000000 0.70710678
vn 0.70710678 0.00000000 0.70710678
vn 0.70710678 0.00000000 0.70710678
vn 0.00309999 0.00000000 0.99999520
vn 0.00299999 0.00020000 0.99999548
vn 0.25880773 0.00000000 0.96592886
vn 0.25880773 0.00000000 0.96592886
vn -0.25880773 0.00000000 0.96592886
vn -0.25880773 0.00000000 0.96592886
vn -0.00299999 0.00000000 0.99999550
vn -0.00309999 0.00000000 0.99999520
vn -0.96592886 0.00000000 0.25880773
vn -0.96592886 0.00000000 0.25880773
vn -0.70710678 0.00000000 0.70710678
vn -0.70710678 0.00000000 0.70710678
vn -0.70710678 0.00000000 0.70710678
vn -0.70710678 0.00000000 0.70710678
vn -0.00299999 0.00000000 -0.99999550
vn -0.00299999 0.00000000 -0.99999550
vn -0.25880773 0.00000000 -0.96592886
vn -0.25880773 0.00000000 -0.96592886
vt 0.56049900 0.42071700
vt 0.77500400 0.29426000
vt 0.56048100 0.16783400
vt 0.49205400 0.11232500
vt 0.28201400 0.24656000
vt 0.49550200 0.11578600
vt 0.98952900 0.42068600
vt 0.98951100 0.16780300
vt 0.98824500 0.16308400
vt 0.98479000 0.15962900
vt 0.98007200 0.15836500
vt 0.56991800 0.15839500
vt 0.56519900 0.15966000
vt 0.56174500 0.16311400
vt 0.56176400 0.42543600
vt 0.56521900 0.42889000
vt 0.56993800 0.43015500
vt 0.98009100 0.43012500
vt 0.98481000 0.42886000
vt 0.98826400 0.42540500
vt 0.06852700 0.37733400
vt 0.07197500 0.38079400
vt 0.07669100 0.38206700
vt 0.48684400 0.38281200
vt 0.49156500 0.38155600
vt 0.49502600 0.37810800
vt 0.49629900 0.37339000
vt 0.49675800 0.12050800
vt 0.48733700 0.11105300
vt 0.07718400 0.11030900
vt 0.07246300 0.11156500
vt 0.06900200 0.11501300
vt 0.06773000 0.11972900
vt 0.06726900 0.37261200
vt 0.72285200 0.70368200
vt 0.72276600 0.70118100
vt 0.72005500 0.70210700
vt 0.72084600 0.70623300
vt 0.72110300 0.69638900
vt 0.71962900 0.69440000
vt 0.71651600 0.69357100
vt 0.71842200 0.69731800
vt 0.72214800 0.69870700
vt 0.71939800 0.69966000
vt 0.50517600 0.42906400
vt 0.55499900 0.42908100
vt 0.55500000 0.42419600
vt 0.50517800 0.42417800
vt 0.50517800 0.42417800
vt 0.55500000 0.42419600
vt 0.55500200 0.41931000
vt 0.50518000 0.41929300
vt 0.55509000 0.16642700
vt 0.50526800 0.16641000
vt 0.98079100 0.15483500
vt 0.98079000 0.10501200
vt 0.57063700 0.10502300
vt 0.57063800 0.15484600
vt 0.01047400 0.38695700
vt 0.06029600 0.38696600
vt 0.06034200 0.13408200
vt 0.01052000 0.13407400
vt 0.07682800 0.38507500
vt 0.07683700 0.43489800
vt 0.48699000 0.43482400
vt 0.48698100 0.38500200
vt 0.01052200 0.12430300
vt 0.06034400 0.12431200
vt 0.06034500 0.11942600
vt 0.01052200 0.11941700
vt 0.01052100 0.12918900
vt 0.06034300 0.12919700
vt 0.06034400 0.12431200
vt 0.01052200 0.12430300
vt 0.06034300 0.12919700
vt 0.01052100 0.12918900
vt 0.01047300 0.39184200
vt 0.06029600 0.39185100
vt 0.01047200 0.39672700
vt 0.06029500 0.39673600
vt 0.06029600 0.39185100
vt 0.01047300 0.39184200
vt 0.01047100 0.40161300
vt 0.06029400 0.40162200
vt 0.06029500 0.39673600
vt 0.01047200 0.39672700
vt 0.50527100 0.15663900
vt 0.55509300 0.15665600
vt 0.55509500 0.15177100
vt 0.50527300 0.15175400
vt 0.55509200 0.16154100
vt 0.50526900 0.16152400
vt 0.50526900 0.16152400
vt 0.55509200 0.16154100
vt 0.55509300 0.15665600
vt 0.50527100 0.15663900
vt 0.50517400 0.43394900
vt 0.55499700 0.43396700
vt 0.55499900 0.42908100
vt 0.50517600 0.42906400
f 1/1/1 2/2/2 3/3/3
f 4/4/4 5/5/5 6/6/6
f 7/7/7 8/8/8 2/2/2
f 2/2/2 8/8/8 9/9/9
f 2/2/2 9/9/9 10/10/10
f 2/2/2 10/10/10 11/11/11
f 2/2/2 11/11/11 12/12/12
f 2/2/2 12/12/12 13/13/13
f 2/2/2 13/13/13 14/14/14
f 2/2/2 14/14/14 3/3/3
f 15/15/15 2/2/2 1/1/1
f 16/16/16 2/2/2 15/15/15
f 17/17/17 2/2/2 16/16/16
f 18/18/18 2/2/2 17/17/17
f 19/19/19 2/2/2 18/18/18
f 20/20/20 2/2/2 19/19/19
f 7/7/7 2/2/2 20/20/20
f 21/21/21 22/22/22 5/5/5
f 5/5/5 22/22/22 23/23/23
f 5/5/5 23/23/23 24/24/24
f 5/5/5 24/24/24 25/25/25
f 5/5/5 25/25/25 26/26/26
f 5/5/5 26/26/26 27/27/27
f 5/5/5 27/27/27 28/28/28
f 5/5/5 28/28/28 6/6/6
f 29/29/29 5/5/5 4/4/4
f 30/30/30 5/5/5 29/29/29
f 31/31/31 5/5/5 30/30/30
f 32/32/32 5/5/5 31/31/31
f 33/33/33 5/5/5 32/32/32
f 34/34/34 5/5/5 33/33/33
f 21/21/21 5/5/5 34/34/34
f 35/35/35 36/36/36 37/37/37
f 35/35/35 37/37/37 38/38/38
f 39/39/39 40/40/40 41/41/41
f 39/39/39 41/41/41 42/42/42
f 43/43/43 39/39/39 42/42/42
f 43/43/43 42/42/42 44/44/44
f 36/36/36 43/43/43 44/44/44
f 36/36/36 44/44/44 37/37/37
f 45/45/45 46/46/46 47/47/47
f 45/45/45 47/47/47 48/48/48
f 49/49/49 50/50/50 51/51/51
f 49/49/49 51/51/51 52/52/52
f 52/52/52 51/51/51 53/53/53
f 52/52/52 53/53/53 54/54/54
f 55/55/55 56/56/56 57/57/57
f 55/55/55 57/57/57 58/58/58
f 59/59/59 60/60/60 61/61/61
f 59/59/59 61/61/61 62/62/62
f 63/63/63 64/64/64 65/65/65
f 63/63/63 65/65/65 66/66/66
f 67/67/67 68/68/68 69/69/69
f 67/67/67 69/69/69 70/70/70
f 71/71/71 72/72/72 73/73/73
f 71/71/71 73/73/73 74/74/74
f 62/62/62 61/61/61 75/75/75
f 62/62/62 75/75/75 76/76/76
f 77/77/77 78/78/78 60/60/60
f 77/77/77 60/60/60 59/59/59
f 79/79/79 80/80/80 81/81/81
f 79/79/79 81/81/81 82/82/82
f 83/83/83 84/84/84 85/85/85
f 83/83/83 85/85/85 86/86/86
f 87/87/87 88/88/88 89/89/89
f 87/87/87 89/89/89 90/90/90
f 54/54/54 53/53/53 91/91/91
f 54/54/54 91/91/91 92/92/92
f 93/93/93 94/94/94 95/95/95
f 93/93/93 95/95/95 96/96/96
f 97/97/97 98/98/98 99/99/99
f 97/97/97 99/99/99 100/100/100