# https://github.com/mikedh/trimesh
mtllib material.mtl
usemtl material_0
v 0.45887986 -0.39906596 -0.19611394
v 0.45487021 -0.39906596 -0.20012359
v 0.35669142 -0.39906596 0.04038455
v 0.46034734 -0.39906596 -0.19063682
v 0.46034734 -0.39906596 0.26055171
v 0.26348390 -0.39906596 0.27150597
v 0.44939309 -0.39906596 0.27150597
v 0.26348390 -0.39906596 -0.20159107
v 0.44939309 -0.39906596 -0.20159107
v 0.45487021 -0.39906596 0.27003848
v 0.45887986 -0.39906596 0.26602884
v 0.45788301 -0.40515269 -0.19553955
v 0.35669142 -0.40515269 0.04038455
v 0.45429397 -0.40515269 -0.19912674
v 0.45923561 -0.40515269 -0.19049229
v 0.45923561 -0.40515269 0.26040534
v 0.44924671 -0.40515269 0.27039424
v 0.26459564 -0.40515269 0.27039424
v 0.26459564 -0.40515269 -0.20047934
v 0.44924671 -0.40515269 -0.20047934
v 0.45429397 -0.40515269 0.26904163
v 0.45788301 -0.40515269 0.26545259
v 0.45470160 -0.40479693 -0.19983268
v 0.45858710 -0.40479508 -0.19594719
v 0.45858710 -0.40479508 -0.19594719
v 0.45470160 -0.40479693 -0.19983268
v 0.45487021 -0.40393534 -0.20012359
v 0.45887986 -0.40393534 -0.19611394
v 0.44935047 -0.40479508 0.27117986
v 0.26380816 -0.40479508 0.27117986
v 0.26380816 -0.40479508 0.27117986
v 0.44935047 -0.40479508 0.27117986
v 0.44939309 -0.40393534 0.27150597
v 0.26348390 -0.40393534 0.27150597
v 0.45887986 -0.39906596 -0.19611394
v 0.45887986 -0.40393534 -0.19611394
v 0.45487021 -0.40393534 -0.20012359
v 0.45487021 -0.39906596 -0.20012359
v 0.46034734 -0.39906596 -0.19063682
v 0.46034734 -0.40393534 -0.19063682
v 0.46034734 -0.39906596 0.26055171
v 0.46034734 -0.40393534 0.26055171
v 0.46034734 -0.40393534 -0.19063682
v 0.46034734 -0.39906596 -0.19063682
v 0.26348390 -0.39906596 0.27150597
v 0.26348390 -0.40393534 0.27150597
v 0.44939309 -0.40393534 0.27150597
v 0.44939309 -0.39906596 0.27150597
v 0.44939309 -0.39906596 -0.20159107
v 0.44939309 -0.40393534 -0.20159107
v 0.26348390 -0.40393534 -0.20159107
v 0.26348390 -0.39906596 -0.20159107
v 0.45487021 -0.40393534 0.27003848
v 0.45487021 -0.39906596 0.27003848
v 0.45887986 -0.39906596 0.26602884
v 0.45887986 -0.40393534 0.26602884
v 0.46034734 -0.40393534 0.26055171
v 0.46034734 -0.39906596 0.26055171
v 0.46034734 -0.40393534 -0.19063682
v 0.46002123 -0.40479508 -0.19059420
v 0.46002123 -0.40479508 -0.19059420
v 0.46034734 -0.40393534 0.26055171
v 0.46002123 -0.40479508 0.26050910
v 0.46002123 -0.40479508 0.26050910
v 0.45887986 -0.40393534 0.26602884
v 0.45858710 -0.40479508 0.26586023
v 0.45858710 -0.40479508 0.26586023
v 0.26380816 -0.40479508 0.27117986
v 0.26380816 -0.40479693 -0.20126682
v 0.45470160 -0.40479508 0.26974573
v 0.45470160 -0.40479508 0.26974573
v 0.45487021 -0.40393534 0.27003848
v 0.26348390 -0.40393534 -0.20159107
v 0.44939309 -0.40393534 -0.20159107
v 0.44935047 -0.40479693 -0.20126682
v 0.26380816 -0.40479693 -0.20126682
v 0.26380816 -0.40479693 -0.20126682
v 0.44935047 -0.40479693 -0.20126682
vn 0.00000000 1.00000000 0.00000000
vn 0.00000000 1.00000000 0.00000000
vn 0.00000000 1.00000000 0.00000000
vn 0.00000000 1.00000000 0.00000000
vn 0.00000000 1.00000000 0.00000000
vn 0.00000000 1.00000000 0.00000000
vn 0.00000000 1.00000000 0.00000000
vn 0.00000000 1.00000000 0.00000000
vn 0.00000000 1.00000000 0.00000000
vn 0.00000000 1.00000000 0.00000000
vn 0.00000000 1.00000000 0.00000000
vn 0.00399996 -0.99998958 -0.00219998
vn 0.00000000 -1.00000000 0.00000000
vn 0.00199998 -0.99999222 -0.00339997
vn 0.02440006 -0.99970227 -0.00010000
vn 0.02350056 -0.99972382 0.00010000
vn 0.00000000 -0.99999076 0.00429996
vn -0.01120031 -0.99992759 0.00440012
vn -0.01080035 -0.99993285 -0.00420014
vn 0.00000000 -0.99999160 -0.00409997
vn 0.00199998 -0.99999152 0.00359997
vn 0.00399996 -0.99998936 0.00229998
vn 0.20020128 -0.91590583 -0.34790222
vn 0.34801099 -0.91592893 -0.19990632
vn 0.80662918 -0.36471319 -0.46511682
vn 0.46558361 -0.36468716 -0.80637161
vn 0.49921429 -0.05510158 -0.86472476
vn 0.86472476 -0.05510158 -0.49921429
vn 0.00299990 -0.91086853 0.41268574
vn 0.00000000 -0.91068812 0.41309461
vn 0.00000000 -0.35389446 0.93528536
vn 0.00710028 -0.35421416 0.93513738
vn 0.00760031 -0.05530226 0.99844073
vn 0.00000000 -0.04590211 0.99894594
vn 0.86601905 0.00000000 -0.50001100
vn 0.86472476 -0.05510158 -0.49921429
vn 0.49921429 -0.05510158 -0.86472476
vn 0.50001100 0.00000000 -0.86601905
vn 0.99999488 0.00000000 -0.00319998
vn 0.99846476 -0.05529805 -0.00319989
vn 0.99999488 0.00000000 0.00319998
vn 0.99846476 -0.05529805 0.00319989
vn 0.99846476 -0.05529805 -0.00319989
vn 0.99999488 0.00000000 -0.00319998
vn 0.00000000 0.00000000 1.00000000
vn 0.00000000 -0.04590211 0.99894594
vn 0.00760031 -0.05530226 0.99844073
vn 0.00769977 0.00000000 0.99997036
vn 0.00769977 0.00000000 -0.99997036
vn 0.00760031 -0.05530226 -0.99844073
vn 0.00000000 -0.04590211 -0.99894594
vn 0.00000000 0.00000000 -1.00000000
vn 0.49921429 -0.05510158 0.86472476
vn 0.50001100 0.00000000 0.86601905
vn 0.86601905 0.00000000 0.50001100
vn 0.86472476 -0.05510158 0.49921429
vn 0.99846476 -0.05529805 0.00319989
vn 0.99999488 0.00000000 0.00319998
vn 0.99846476 -0.05529805 -0.00319989
vn 0.93520241 -0.35410091 -0.00300001
vn 0.41301132 -0.91072496 -0.00130004
vn 0.99846476 -0.05529805 0.00319989
vn 0.93520241 -0.35410091 0.00300001
vn 0.41301137 -0.91072508 0.00120003
vn 0.86472476 -0.05510158 0.49921429
vn 0.80637161 -0.36468716 0.46558361
vn 0.34801099 -0.91592893 0.19990632
vn -0.41309461 -0.91068812 0.00000000
vn -0.41317754 -0.91065049 0.00000000
vn 0.19990632 -0.91592893 0.34801099
vn 0.46519519 -0.36469623 0.80659166
vn 0.49921704 -0.05500188 0.86472952
vn 0.00000000 -0.04590211 -0.99894594
vn 0.00760031 -0.05530226 -0.99844073
vn 0.00709987 -0.35409358 -0.93518305
vn 0.00000000 -0.35380698 -0.93531846
vn 0.00000000 -0.91065049 -0.41317754
vn 0.00300005 -0.91081390 -0.41280630
vt 0.06817000 0.95255100
vt 0.06701200 0.95370900
vt 0.04073800 0.88737900
vt 0.06859400 0.95096900
vt 0.06859400 0.82378900
vt 0.01381700 0.82062500
vt 0.06543000 0.82062500
vt 0.01381800 0.95413300
vt 0.06543100 0.95413300
vt 0.06701200 0.82104900
vt 0.06817000 0.82220700
vt 0.98500600 0.97690700
vt 0.77779800 0.49383000
vt 0.97766600 0.98425400
vt 0.98777200 0.96657300
vt 0.98714800 0.04300700
vt 0.96668600 0.02258100
vt 0.58896500 0.02394800
vt 0.58961400 0.98617000
vt 0.96733800 0.98702500
vt 0.97701700 0.02533900
vt 0.98436800 0.03267600
vt 0.97857000 0.98582800
vt 0.98657900 0.97781700
vt 0.98657900 0.97781700
vt 0.97857000 0.98582800
vt 0.97950500 0.98744900
vt 0.98821300 0.97877300
vt 0.96689300 0.02081100
vt 0.58722300 0.02227700
vt 0.58722300 0.02227700
vt 0.96689300 0.02081100
vt 0.96698200 0.01892400
vt 0.58552500 0.02111200
vt 0.06781500 0.82043000
vt 0.06781500 0.81902400
vt 0.06617700 0.81902400
vt 0.06617800 0.82043000
vt 0.06945300 0.82043000
vt 0.06945300 0.81902300
vt 0.56534900 0.06473500
vt 0.55509000 0.06473500
vt 0.55509500 0.99254100
vt 0.56535400 0.99254100
vt 0.98411000 0.01564200
vt 0.98411000 0.00538200
vt 0.60758500 0.00538800
vt 0.60758500 0.01564800
vt 0.06454000 0.82043000
vt 0.06454000 0.81902400
vt 0.01292700 0.81903200
vt 0.01292700 0.82043800
vt 0.59563800 0.00538800
vt 0.59563800 0.01564800
vt 0.58369100 0.01564800
vt 0.58369000 0.00538800
vt 0.57174200 0.00538800
vt 0.57174200 0.01564800
vt 0.99142000 0.96687600
vt 0.98953700 0.96678500
vt 0.98953700 0.96678500
vt 0.99079600 0.04269900
vt 0.98891300 0.04279300
vt 0.98891300 0.04279300
vt 0.98755600 0.03082500
vt 0.98593800 0.03176600
vt 0.98593800 0.03176600
vt 0.58722300 0.02227700
vt 0.58787400 0.98784300
vt 0.97792100 0.02376400
vt 0.97792100 0.02376400
vt 0.97887200 0.02212600
vt 0.58617700 0.98901000
vt 0.96763900 0.99068200
vt 0.96754700 0.98879500
vt 0.58787400 0.98784300
vt 0.58787400 0.98784300
vt 0.96754700 0.98879500
f 1/1/1 2/2/2 3/3/3
f 1/1/1 3/3/3 4/4/4
f 3/3/3 5/5/5 4/4/4
f 3/3/3 6/6/6 7/7/7
f 3/3/3 8/8/8 6/6/6
f 3/3/3 9/9/9 8/8/8
f 3/3/3 7/7/7 10/10/10
f 5/5/5 3/3/3 11/11/11
f 3/3/3 10/10/10 11/11/11
f 2/2/2 9/9/9 3/3/3
f 12/12/12 13/13/13 14/14/14
f 12/12/12 15/15/15 13/13/13
f 13/13/13 15/15/15 16/16/16
f 13/13/13 17/17/17 18/18/18
f 13/13/13 18/18/18 19/19/19
f 13/13/13 19/19/19 20/20/20
f 13/13/13 21/21/21 17/17/17
f 16/16/16 22/22/22 13/13/13
f 13/13/13 22/22/22 21/21/21
f 14/14/14 13/13/13 20/20/20
f 12/12/12 14/14/14 23/23/23
f 12/12/12 23/23/23 24/24/24
f 25/25/25 26/26/26 27/27/27
f 25/25/25 27/27/27 28/28/28
f 18/18/18 17/17/17 29/29/29
f 18/18/18 29/29/29 30/30/30
f 31/31/31 32/32/32 33/33/33
f 31/31/31 33/33/33 34/34/34
f 35/35/35 36/36/36 37/37/37
f 35/35/35 37/37/37 38/38/38
f 39/39/39 40/40/40 36/36/36
f 39/39/39 36/36/36 35/35/35
f 41/41/41 42/42/42 43/43/43
f 41/41/41 43/43/43 44/44/44
f 45/45/45 46/46/46 47/47/47
f 45/45/45 47/47/47 48/48/48
f 49/49/49 50/50/50 51/51/51
f 49/49/49 51/51/51 52/52/52
f 48/48/48 47/47/47 53/53/53
f 48/48/48 53/53/53 54/54/54
f 55/55/55 56/56/56 57/57/57
f 55/55/55 57/57/57 58/58/58
f 54/54/54 53/53/53 56/56/56
f 54/54/54 56/56/56 55/55/55
f 38/38/38 37/37/37 50/50/50
f 38/38/38 50/50/50 49/49/49
f 28/28/28 59/59/59 60/60/60
f 28/28/28 60/60/60 25/25/25
f 24/24/24 61/61/61 15/15/15
f 24/24/24 15/15/15 12/12/12
f 59/59/59 62/62/62 63/63/63
f 59/59/59 63/63/63 60/60/60
f 61/61/61 64/64/64 16/16/16
f 61/61/61 16/16/16 15/15/15
f 62/62/62 65/65/65 66/66/66
f 62/62/62 66/66/66 63/63/63
f 64/64/64 67/67/67 22/22/22
f 64/64/64 22/22/22 16/16/16
f 68/68/68 69/69/69 19/19/19
f 68/68/68 19/19/19 18/18/18
f 17/17/17 21/21/21 70/70/70
f 17/17/17 70/70/70 29/29/29
f 32/32/32 71/71/71 72/72/72
f 32/32/32 72/72/72 33/33/33
f 73/73/73 74/74/74 75/75/75
f 73/73/73 75/75/75 76/76/76
f 77/77/77 78/78/78 20/20/20
f 77/77/77 20/20/20 19/19/19
f 14/14/14 20/20/20 78/78/78
f 14/14/14 78/78/78 23/23/23
f 26/26/26 75/75/75 74/74/74
f 26/26/26 74/74/74 27/27/27
f 21/21/21 22/22/22 67/67/67
f 21/21/21 67/67/67 70/70/70
f 71/71/71 66/66/66 65/65/65
f 71/71/71 65/65/65 72/72/72